<svg xmlns="http://www.w3.org/2000/svg" viewBox="0 0 720 520" role="img" aria-labelledby="title desc">
  <title id="title">SFO runway weather illustration</title>
  <desc id="desc">A runway beside bay water with a sun, cloud, and thermometer.</desc>
  <defs>
    <linearGradient id="sky" x1="0" x2="1" y1="0" y2="1">
      <stop offset="0" stop-color="#dff7f6"/>
      <stop offset="0.58" stop-color="#f7fbfb"/>
      <stop offset="1" stop-color="#ffe2d6"/>
    </linearGradient>
    <linearGradient id="water" x1="0" x2="1">
      <stop offset="0" stop-color="#127c89"/>
      <stop offset="1" stop-color="#6bc0be"/>
    </linearGradient>
    <linearGradient id="runway" x1="0" x2="1">
      <stop offset="0" stop-color="#25313a"/>
      <stop offset="1" stop-color="#51626e"/>
    </linearGradient>
  </defs>
  <rect width="720" height="520" fill="url(#sky)"/>
  <circle cx="560" cy="110" r="62" fill="#f6b13d"/>
  <circle cx="560" cy="110" r="88" fill="#f6b13d" opacity="0.18"/>
  <g fill="#ffffff" opacity="0.92">
    <ellipse cx="170" cy="138" rx="76" ry="34"/>
    <ellipse cx="230" cy="128" rx="62" ry="42"/>
    <ellipse cx="288" cy="144" rx="70" ry="30"/>
    <rect x="145" y="132" width="168" height="46" rx="23"/>
  </g>
  <path d="M0 310 C95 282 161 330 250 304 C353 274 443 306 542 288 C616 275 674 286 720 269 L720 520 L0 520 Z" fill="url(#water)"/>
  <path d="M0 338 C95 315 159 358 246 335 C349 308 442 337 540 319 C618 304 680 316 720 302" fill="none" stroke="#ffffff" stroke-width="6" opacity="0.42"/>
  <path d="M0 382 C105 357 158 401 255 377 C352 353 440 382 540 365 C620 350 676 361 720 348" fill="none" stroke="#ffffff" stroke-width="6" opacity="0.34"/>
  <path d="M93 520 L336 285 L602 520 Z" fill="url(#runway)"/>
  <path d="M347 322 L364 322 M319 353 L374 353 M288 386 L389 386 M254 423 L407 423 M216 466 L429 466" stroke="#f7fbfb" stroke-width="10" stroke-linecap="round"/>
  <g transform="translate(72 78)">
    <rect x="0" y="0" width="168" height="168" rx="8" fill="#ffffff" opacity="0.78"/>
    <path d="M80 36 v62" fill="none" stroke="#e6532f" stroke-width="16" stroke-linecap="round"/>
    <circle cx="80" cy="112" r="28" fill="#e6532f"/>
    <path d="M80 28 a24 24 0 0 1 24 24 v42 a44 44 0 1 1 -48 0 v-42 a24 24 0 0 1 24 -24z" fill="none" stroke="#17212b" stroke-width="10" stroke-linejoin="round"/>
    <path d="M116 48 h26 M116 74 h20 M116 100 h26" stroke="#17212b" stroke-width="8" stroke-linecap="round"/>
  </g>
  <g fill="#17212b" opacity="0.88">
    <rect x="416" y="216" width="18" height="62"/>
    <rect x="444" y="184" width="20" height="94"/>
    <rect x="476" y="202" width="24" height="76"/>
    <rect x="512" y="166" width="22" height="112"/>
    <rect x="548" y="196" width="18" height="82"/>
  </g>
</svg>
